<?xml version="1.0" encoding="UTF-8"?>
<!DOCTYPE svg PUBLIC "-//W3C//DTD SVG 1.1//EN" "http://www.w3.org/Graphics/SVG/1.1/DTD/svg11.dtd">
<svg xmlns="http://www.w3.org/2000/svg" version="1.1" width="171px" height="162px" style="shape-rendering:geometricPrecision; text-rendering:geometricPrecision; image-rendering:optimizeQuality; fill-rule:evenodd; clip-rule:evenodd" xmlns:xlink="http://www.w3.org/1999/xlink">
<g><path style="opacity:1" fill="#fefefe" d="M -0.5,-0.5 C 56.5,-0.5 113.5,-0.5 170.5,-0.5C 170.5,53.5 170.5,107.5 170.5,161.5C 113.5,161.5 56.5,161.5 -0.5,161.5C -0.5,107.5 -0.5,53.5 -0.5,-0.5 Z"/></g>
<g><path style="opacity:1" fill="#fef20d" d="M 116.5,53.5 C 111.5,53.5 106.5,53.5 101.5,53.5C 98.7329,49.4828 96.0663,45.3161 93.5,41C 88.5963,37.5463 83.9296,37.713 79.5,41.5C 76.81,45.5654 74.1433,49.5654 71.5,53.5C 66.5,53.5 61.5,53.5 56.5,53.5C 60.3147,43.836 65.9814,35.336 73.5,28C 88.7452,21.2701 100.579,25.1035 109,39.5C 111.258,44.3526 113.758,49.0193 116.5,53.5 Z"/></g>
<g><path style="opacity:1" fill="#fdfcfc" d="M 101.5,53.5 C 106.312,63.7905 111.645,73.7905 117.5,83.5C 122.329,93.1622 127.662,102.496 133.5,111.5C 136.815,117.449 135.815,122.616 130.5,127C 115.732,128.143 100.898,128.643 86,128.5C 71.1018,128.643 56.2684,128.143 41.5,127C 37.2863,122.23 36.6197,117.063 39.5,111.5C 44.8181,102.202 50.1514,92.8686 55.5,83.5C 61.355,73.7905 66.6884,63.7905 71.5,53.5C 74.1433,49.5654 76.81,45.5654 79.5,41.5C 83.9296,37.713 88.5963,37.5463 93.5,41C 96.0663,45.3161 98.7329,49.4828 101.5,53.5 Z"/></g>
<g><path style="opacity:1" fill="#fef21b" d="M 91.5,54.5 C 88.1667,54.5 84.8333,54.5 81.5,54.5C 82.4919,52.9735 83.9919,52.3068 86,52.5C 88.2206,52.3932 90.0539,53.0598 91.5,54.5 Z"/></g>
<g><path style="opacity:1" fill="#fe8029" d="M 56.5,53.5 C 61.5,53.5 66.5,53.5 71.5,53.5C 66.6884,63.7905 61.355,73.7905 55.5,83.5C 50.1667,83.5 44.8333,83.5 39.5,83.5C 45.1667,73.5 50.8333,63.5 56.5,53.5 Z"/></g>
<g><path style="opacity:1" fill="#fe812a" d="M 101.5,53.5 C 106.5,53.5 111.5,53.5 116.5,53.5C 122.151,63.4648 127.818,73.4648 133.5,83.5C 128.167,83.5 122.833,83.5 117.5,83.5C 111.645,73.7905 106.312,63.7905 101.5,53.5 Z"/></g>
<g><path style="opacity:1" fill="#fe7f26" d="M 81.5,54.5 C 84.8333,54.5 88.1667,54.5 91.5,54.5C 92.2216,54.9175 92.7216,55.5842 93,56.5C 93.4998,65.4938 93.6664,74.4938 93.5,83.5C 88.8333,83.5 84.1667,83.5 79.5,83.5C 79.3336,74.4938 79.5002,65.4938 80,56.5C 80.2784,55.5842 80.7784,54.9175 81.5,54.5 Z"/></g>
<g><path style="opacity:1" fill="#e40c06" d="M 39.5,83.5 C 44.8333,83.5 50.1667,83.5 55.5,83.5C 50.1514,92.8686 44.8181,102.202 39.5,111.5C 34.5,111.5 29.5,111.5 24.5,111.5C 28.9785,101.876 33.9785,92.5423 39.5,83.5 Z"/></g>
<g><path style="opacity:1" fill="#e40101" d="M 79.5,83.5 C 84.1667,83.5 88.8333,83.5 93.5,83.5C 93.665,86.8499 93.4983,90.1832 93,93.5C 89.2112,98.3202 85.0445,98.6535 80.5,94.5C 79.5741,90.9062 79.2408,87.2396 79.5,83.5 Z"/></g>
<g><path style="opacity:1" fill="#e61109" d="M 117.5,83.5 C 122.833,83.5 128.167,83.5 133.5,83.5C 139.024,92.5469 144.024,101.88 148.5,111.5C 143.5,111.5 138.5,111.5 133.5,111.5C 127.662,102.496 122.329,93.1622 117.5,83.5 Z"/></g>
<g><path style="opacity:1" fill="#e5150c" d="M 94.5,111.5 C 89.1667,111.5 83.8333,111.5 78.5,111.5C 79.8175,107.834 82.4842,106.167 86.5,106.5C 90.2065,106.546 92.8732,108.213 94.5,111.5 Z"/></g>
<g><path style="opacity:1" fill="#313617" d="M 24.5,111.5 C 29.5,111.5 34.5,111.5 39.5,111.5C 36.6197,117.063 37.2863,122.23 41.5,127C 56.2684,128.143 71.1018,128.643 86,128.5C 100.898,128.643 115.732,128.143 130.5,127C 135.815,122.616 136.815,117.449 133.5,111.5C 138.5,111.5 143.5,111.5 148.5,111.5C 150.497,122.01 147.497,130.844 139.5,138C 135.768,140.133 131.768,141.466 127.5,142C 99.5,142.667 71.5,142.667 43.5,142C 28.1495,137.468 21.8161,127.301 24.5,111.5 Z"/></g>
<g><path style="opacity:1" fill="#2f3515" d="M 78.5,111.5 C 83.8333,111.5 89.1667,111.5 94.5,111.5C 95.7003,120.751 91.7003,124.251 82.5,122C 77.928,119.695 76.5947,116.195 78.5,111.5 Z"/></g>
</svg>
