<?xml version="1.0" encoding="UTF-8"?>
<!DOCTYPE svg PUBLIC "-//W3C//DTD SVG 1.1//EN" "http://www.w3.org/Graphics/SVG/1.1/DTD/svg11.dtd">
<svg xmlns="http://www.w3.org/2000/svg" version="1.1" width="260px" height="244px" style="shape-rendering:geometricPrecision; text-rendering:geometricPrecision; image-rendering:optimizeQuality; fill-rule:evenodd; clip-rule:evenodd" xmlns:xlink="http://www.w3.org/1999/xlink">
<g><path style="opacity:1" fill="#fefefe" d="M -0.5,-0.5 C 86.1667,-0.5 172.833,-0.5 259.5,-0.5C 259.5,80.8333 259.5,162.167 259.5,243.5C 172.833,243.5 86.1667,243.5 -0.5,243.5C -0.5,162.167 -0.5,80.8333 -0.5,-0.5 Z"/></g>
<g><path style="opacity:1" fill="#e40000" d="M 121.5,12.5 C 150.895,9.95761 174.395,20.2909 192,43.5C 196.057,49.7772 198.557,56.6106 199.5,64C 201.354,65.5228 202.854,67.3562 204,69.5C 204.667,86.1667 204.667,102.833 204,119.5C 203.064,122.768 201.064,125.101 198,126.5C 189.399,153.441 171.233,169.274 143.5,174C 142.5,175 141.5,176 140.5,177C 135.167,177.667 129.833,177.667 124.5,177C 120.354,172.375 120.687,168.041 125.5,164C 130.167,163.333 134.833,163.333 139.5,164C 141.5,164.667 142.833,166 143.5,168C 168.839,165.345 185.172,151.678 192.5,127C 190.234,125.477 189.067,123.311 189,120.5C 188.333,103.5 188.333,86.5 189,69.5C 191.241,66.1553 191.908,62.4887 191,58.5C 181.916,37.5313 166.082,25.0313 143.5,21C 118.3,17.3984 97.1332,24.8984 80,43.5C 76.555,48.0552 73.8883,53.0552 72,58.5C 73.0254,70.7484 73.5254,83.0818 73.5,95.5C 73.6281,105.237 73.1281,114.904 72,124.5C 65.5204,128.182 60.8537,126.516 58,119.5C 57.3333,103.167 57.3333,86.8333 58,70.5C 58.5408,67.791 60.0408,65.791 62.5,64.5C 67.6725,42.4896 80.6725,26.9896 101.5,18C 108.208,15.8343 114.874,14.001 121.5,12.5 Z"/></g>
<g><path style="opacity:1" fill="#009f57" d="M 121.5,40.5 C 153.169,38.7441 173.336,53.0775 182,83.5C 184.53,115.623 170.363,136.123 139.5,145C 108.142,146.909 88.3087,132.742 80,102.5C 77.6495,70.8384 91.4829,50.1718 121.5,40.5 Z"/></g>
<g><path style="opacity:1" fill="#e40000" d="M 53.5,74.5 C 55.4814,87.4581 56.1481,100.791 55.5,114.5C 46.7053,110.948 42.3719,104.282 42.5,94.5C 42.5502,85.7247 46.2168,79.058 53.5,74.5 Z"/></g>
<g><path style="opacity:1" fill="#e40000" d="M 206.5,74.5 C 214.746,78.4491 219.08,85.1157 219.5,94.5C 219.059,103.394 215.059,110.061 207.5,114.5C 206.501,101.183 206.167,87.85 206.5,74.5 Z"/></g>
<g><path style="opacity:1" fill="#009f57" d="M 87.5,145.5 C 94.1512,147.55 100.818,149.717 107.5,152C 129.225,157.769 150.225,155.769 170.5,146C 172.81,145.503 175.143,145.337 177.5,145.5C 175.88,149.642 173.214,153.142 169.5,156C 162.764,160.534 155.431,163.701 147.5,165.5C 145.444,164.952 143.777,163.786 142.5,162C 135.334,159.727 128.334,160.06 121.5,163C 116.857,169.776 117.857,175.442 124.5,180C 130.167,180.667 135.833,180.667 141.5,180C 142.5,179.167 143.5,178.333 144.5,177.5C 161.958,174.941 176.291,166.941 187.5,153.5C 188.365,152.417 189.365,152.251 190.5,153C 216.819,166.467 228.319,187.967 225,217.5C 222.16,223.004 217.66,226.171 211.5,227C 207.702,227.772 203.869,228.272 200,228.5C 183.111,227.179 166.277,225.346 149.5,223C 139.5,222.333 129.5,222.333 119.5,223C 100.504,225.547 81.5038,228.047 62.5,230.5C 39.6708,230.819 31.1708,219.819 37,197.5C 40.6623,178.679 50.8289,164.512 67.5,155C 74.1365,151.513 80.8031,148.346 87.5,145.5 Z"/></g>
</svg>
