<?xml version="1.0" encoding="UTF-8"?>
<!DOCTYPE svg PUBLIC "-//W3C//DTD SVG 1.1//EN" "http://www.w3.org/Graphics/SVG/1.1/DTD/svg11.dtd">
<svg xmlns="http://www.w3.org/2000/svg" version="1.1" width="332px" height="306px" style="shape-rendering:geometricPrecision; text-rendering:geometricPrecision; image-rendering:optimizeQuality; fill-rule:evenodd; clip-rule:evenodd" xmlns:xlink="http://www.w3.org/1999/xlink">
<g><path style="opacity:1" fill="#fefefe" d="M -0.5,-0.5 C 110.167,-0.5 220.833,-0.5 331.5,-0.5C 331.5,101.5 331.5,203.5 331.5,305.5C 220.833,305.5 110.167,305.5 -0.5,305.5C -0.5,203.5 -0.5,101.5 -0.5,-0.5 Z"/></g>
<g><path style="opacity:1" fill="#e40101" d="M 154.5,37.5 C 183.895,34.9576 207.395,45.2909 225,68.5C 229.057,74.7772 231.557,81.6106 232.5,89C 234.354,90.5228 235.854,92.3562 237,94.5C 237.667,111.167 237.667,127.833 237,144.5C 236.064,147.768 234.064,150.101 231,151.5C 222.399,178.441 204.233,194.274 176.5,199C 175.5,200 174.5,201 173.5,202C 168.167,202.667 162.833,202.667 157.5,202C 153.354,197.375 153.687,193.041 158.5,189C 163.167,188.333 167.833,188.333 172.5,189C 174.5,189.667 175.833,191 176.5,193C 201.839,190.345 218.172,176.678 225.5,152C 223.234,150.477 222.067,148.311 222,145.5C 221.333,128.5 221.333,111.5 222,94.5C 224.241,91.1553 224.908,87.4887 224,83.5C 214.916,62.5313 199.082,50.0313 176.5,46C 151.3,42.3984 130.133,49.8984 113,68.5C 109.555,73.0552 106.888,78.0552 105,83.5C 106.025,95.7484 106.525,108.082 106.5,120.5C 106.628,130.237 106.128,139.904 105,149.5C 98.5204,153.182 93.8537,151.516 91,144.5C 90.3333,128.167 90.3333,111.833 91,95.5C 91.5408,92.791 93.0408,90.791 95.5,89.5C 100.672,67.4896 113.672,51.9896 134.5,43C 141.208,40.8343 147.874,39.001 154.5,37.5 Z"/></g>
<g><path style="opacity:1" fill="#009f58" d="M 154.5,65.5 C 186.169,63.7441 206.336,78.0775 215,108.5C 217.53,140.623 203.363,161.123 172.5,170C 141.142,171.909 121.309,157.742 113,127.5C 110.65,95.8384 124.483,75.1718 154.5,65.5 Z"/></g>
<g><path style="opacity:1" fill="#e50101" d="M 86.5,99.5 C 88.4814,112.458 89.1481,125.791 88.5,139.5C 79.7053,135.948 75.3719,129.282 75.5,119.5C 75.5502,110.725 79.2168,104.058 86.5,99.5 Z"/></g>
<g><path style="opacity:1" fill="#e40202" d="M 239.5,99.5 C 247.746,103.449 252.08,110.116 252.5,119.5C 252.059,128.394 248.059,135.061 240.5,139.5C 239.501,126.183 239.167,112.85 239.5,99.5 Z"/></g>
<g><path style="opacity:1" fill="#009f58" d="M 120.5,170.5 C 127.151,172.55 133.818,174.717 140.5,177C 162.225,182.769 183.225,180.769 203.5,171C 205.81,170.503 208.143,170.337 210.5,170.5C 208.88,174.642 206.214,178.142 202.5,181C 195.764,185.534 188.431,188.701 180.5,190.5C 178.444,189.952 176.777,188.786 175.5,187C 168.334,184.727 161.334,185.06 154.5,188C 149.857,194.776 150.857,200.442 157.5,205C 163.167,205.667 168.833,205.667 174.5,205C 175.5,204.167 176.5,203.333 177.5,202.5C 195.181,199.999 209.515,191.832 220.5,178C 248.989,189.768 261.489,211.268 258,242.5C 255.16,248.004 250.66,251.171 244.5,252C 240.702,252.772 236.869,253.272 233,253.5C 216.111,252.179 199.277,250.346 182.5,248C 172.5,247.333 162.5,247.333 152.5,248C 133.504,250.547 114.504,253.047 95.5,255.5C 72.6708,255.819 64.1708,244.819 70,222.5C 73.6623,203.679 83.8289,189.512 100.5,180C 107.136,176.513 113.803,173.346 120.5,170.5 Z"/></g>
</svg>
