<?xml version="1.0" encoding="UTF-8"?>
<!DOCTYPE svg PUBLIC "-//W3C//DTD SVG 1.1//EN" "http://www.w3.org/Graphics/SVG/1.1/DTD/svg11.dtd">
<svg xmlns="http://www.w3.org/2000/svg" version="1.1" width="200px" height="200px" style="shape-rendering:geometricPrecision; text-rendering:geometricPrecision; image-rendering:optimizeQuality; fill-rule:evenodd; clip-rule:evenodd" xmlns:xlink="http://www.w3.org/1999/xlink">
<g><path style="opacity:1" fill="#009f57" d="M -0.5,-0.5 C 66.1667,-0.5 132.833,-0.5 199.5,-0.5C 199.5,66.1667 199.5,132.833 199.5,199.5C 132.833,199.5 66.1667,199.5 -0.5,199.5C -0.5,132.833 -0.5,66.1667 -0.5,-0.5 Z"/></g>
<g><path style="opacity:1" fill="#fefffe" d="M 89.5,0.5 C 121.77,-2.13192 143.603,11.5347 155,41.5C 156.711,53.4881 158.377,65.4881 160,77.5C 162.158,89.1353 166.491,99.8019 173,109.5C 173.896,112.025 173.396,114.192 171.5,116C 158.319,122.772 144.319,126.772 129.5,128C 109.5,144.667 89.5,144.667 69.5,128C 59.6669,126.792 50.0002,124.792 40.5,122C 35.3056,120.153 30.4722,117.653 26,114.5C 25.3333,112.833 25.3333,111.167 26,109.5C 31.2595,102.309 34.9262,94.309 37,85.5C 40.4081,72.3775 42.4081,59.0442 43,45.5C 49.5368,21.1284 65.0368,6.12837 89.5,0.5 Z"/></g>
<g><path style="opacity:1" fill="#009f57" d="M 80.5,39.5 C 95.0762,53.5464 112.076,63.7131 131.5,70C 137.369,71.8074 143.369,72.6407 149.5,72.5C 149.666,77.1785 149.499,81.8452 149,86.5C 148.353,90.6859 146.186,92.0192 142.5,90.5C 141.522,90.9767 140.689,91.6433 140,92.5C 138.604,98.0318 136.437,103.199 133.5,108C 127.809,110.048 121.976,111.548 116,112.5C 113.518,111.365 111.018,110.199 108.5,109C 102.684,107.591 97.517,108.758 93,112.5C 90.9878,117.325 92.4878,120.825 97.5,123C 103.668,124.354 109.334,123.354 114.5,120C 118.577,119.485 122.577,118.651 126.5,117.5C 127.521,118.002 127.688,118.668 127,119.5C 108.667,138.167 90.3333,138.167 72,119.5C 65.8074,111.447 61.474,102.447 59,92.5C 54.4399,92.7083 51.4399,90.7083 50,86.5C 49.1711,81.467 49.3377,76.467 50.5,71.5C 65.0277,64.9755 75.0277,54.3088 80.5,39.5 Z"/></g>
<g><path style="opacity:1" fill="#fefefe" d="M 77.5,73.5 C 81.1817,73.3347 84.8484,73.5014 88.5,74C 91.0341,76.7467 91.0341,79.4133 88.5,82C 84.5,82.6667 80.5,82.6667 76.5,82C 75.0406,78.9295 75.3739,76.0961 77.5,73.5 Z"/></g>
<g><path style="opacity:1" fill="#fefefe" d="M 110.5,73.5 C 114.24,73.2408 117.906,73.5741 121.5,74.5C 124.1,77.041 124.1,79.541 121.5,82C 117.5,82.6667 113.5,82.6667 109.5,82C 108.041,78.9295 108.374,76.0961 110.5,73.5 Z"/></g>
<g><path style="opacity:1" fill="#fefffe" d="M 60.5,133.5 C 62.9032,133.393 64.7365,134.393 66,136.5C 77,153.833 88,171.167 99,188.5C 111.043,170.247 123.209,152.081 135.5,134C 137.903,133.37 139.737,134.203 141,136.5C 146.333,145.833 151.667,155.167 157,164.5C 157.561,167.298 156.394,169.131 153.5,170C 148.167,171.333 142.833,172.667 137.5,174C 126.167,181.667 114.833,189.333 103.5,197C 101.635,198.301 99.6354,198.635 97.5,198C 85.5,190 73.5,182 61.5,174C 56.1667,172.667 50.8333,171.333 45.5,170C 42.6059,169.131 41.4392,167.298 42,164.5C 48.178,154.139 54.3447,143.806 60.5,133.5 Z"/></g>
<g><path style="opacity:1" fill="#fefffe" d="M 34.5,146.5 C 36.8184,146.818 38.1517,148.152 38.5,150.5C 37.1965,154.44 35.3631,158.107 33,161.5C 31.1663,168.655 33.333,174.155 39.5,178C 53.0554,179.769 64.3887,185.602 73.5,195.5C 73.0233,196.478 72.3567,197.311 71.5,198C 47.9274,198.827 24.4274,198.66 1,197.5C 2.20765,186.327 4.54098,175.327 8,164.5C 9.79315,161.705 11.9598,159.205 14.5,157C 21.3859,153.726 28.0526,150.226 34.5,146.5 Z"/></g>
<g><path style="opacity:1" fill="#fefffe" d="M 162.5,146.5 C 172.171,150.084 181.005,155.084 189,161.5C 192.917,171.156 195.917,181.156 198,191.5C 198.758,193.769 198.591,195.936 197.5,198C 174.167,198.667 150.833,198.667 127.5,198C 124.956,196.225 124.956,194.392 127.5,192.5C 132.303,189.529 136.97,186.362 141.5,183C 147.5,181.333 153.5,179.667 159.5,178C 165.667,174.155 167.834,168.655 166,161.5C 163.637,158.107 161.804,154.44 160.5,150.5C 160.752,148.927 161.418,147.594 162.5,146.5 Z"/></g>
</svg>
