<?xml version="1.0" encoding="UTF-8"?>
<!DOCTYPE svg PUBLIC "-//W3C//DTD SVG 1.1//EN" "http://www.w3.org/Graphics/SVG/1.1/DTD/svg11.dtd">
<svg xmlns="http://www.w3.org/2000/svg" version="1.1" width="592px" height="566px" style="shape-rendering:geometricPrecision; text-rendering:geometricPrecision; image-rendering:optimizeQuality; fill-rule:evenodd; clip-rule:evenodd" xmlns:xlink="http://www.w3.org/1999/xlink">
<g><path style="opacity:1" fill="#fefefe" d="M -0.5,-0.5 C 196.833,-0.5 394.167,-0.5 591.5,-0.5C 591.5,188.167 591.5,376.833 591.5,565.5C 394.167,565.5 196.833,565.5 -0.5,565.5C -0.5,376.833 -0.5,188.167 -0.5,-0.5 Z"/></g>
<g><path style="opacity:1" fill="#2d85ea" d="M 331.5,104.5 C 304.61,135.41 277.944,166.743 251.5,198.5C 230.167,181.167 208.833,163.833 187.5,146.5C 207.492,121.827 233.159,106.327 264.5,100C 281.829,96.6671 299.162,96.6671 316.5,100C 321.617,101.505 326.617,103.005 331.5,104.5 Z"/></g>
<g><path style="opacity:1" fill="#5595f5" d="M 331.5,104.5 C 367.352,116.031 394.019,138.364 411.5,171.5C 386.833,200.167 362.167,228.833 337.5,257.5C 347.049,232.399 342.383,210.566 323.5,192C 310.075,181.969 295.075,178.635 278.5,182C 267.779,185.228 258.779,191.062 251.5,199.5C 251.5,199.167 251.5,198.833 251.5,198.5C 277.944,166.743 304.61,135.41 331.5,104.5 Z"/></g>
<g><path style="opacity:1" fill="#e50000" d="M 187.5,146.5 C 208.833,163.833 230.167,181.167 251.5,198.5C 251.5,198.833 251.5,199.167 251.5,199.5C 248.914,202.358 246.58,205.358 244.5,208.5C 219.154,237.849 194.154,267.515 169.5,297.5C 159.68,277.889 155.014,256.889 155.5,234.5C 156.106,201.336 166.773,172.003 187.5,146.5 Z"/></g>
<g><path style="opacity:1" fill="#009f58" d="M 411.5,171.5 C 421.191,191.263 426.191,212.263 426.5,234.5C 425.865,253.729 422.365,272.396 416,290.5C 411.216,298.948 406.883,307.615 403,316.5C 397.925,322.313 393.592,328.646 390,335.5C 366.451,364.271 344.118,393.938 323,424.5C 313.824,442.364 306.824,461.031 302,480.5C 297.084,485.72 291.25,486.887 284.5,484C 281.727,481.617 279.561,478.783 278,475.5C 275.668,467.85 273.335,460.183 271,452.5C 267.35,444.531 263.683,436.531 260,428.5C 249.945,413.952 240.112,399.285 230.5,384.5C 263.869,345.799 296.869,306.799 329.5,267.5C 332.167,264.167 334.833,260.833 337.5,257.5C 362.167,228.833 386.833,200.167 411.5,171.5 Z"/></g>
<g><path style="opacity:1" fill="#fefefe" d="M 337.5,257.5 C 334.833,260.833 332.167,264.167 329.5,267.5C 308.948,286.709 286.281,289.542 261.5,276C 238.531,257.958 232.864,235.458 244.5,208.5C 246.58,205.358 248.914,202.358 251.5,199.5C 258.779,191.062 267.779,185.228 278.5,182C 295.075,178.635 310.075,181.969 323.5,192C 342.383,210.566 347.049,232.399 337.5,257.5 Z"/></g>
<g><path style="opacity:1" fill="#fac610" d="M 244.5,208.5 C 232.864,235.458 238.531,257.958 261.5,276C 286.281,289.542 308.948,286.709 329.5,267.5C 296.869,306.799 263.869,345.799 230.5,384.5C 211.564,362.647 194.064,339.647 178,315.5C 174.882,309.599 172.049,303.599 169.5,297.5C 194.154,267.515 219.154,237.849 244.5,208.5 Z"/></g>
</svg>
