<?xml version="1.0" encoding="UTF-8"?>
<!DOCTYPE svg PUBLIC "-//W3C//DTD SVG 1.1//EN" "http://www.w3.org/Graphics/SVG/1.1/DTD/svg11.dtd">
<svg xmlns="http://www.w3.org/2000/svg" version="1.1" width="459px" height="458px" style="shape-rendering:geometricPrecision; text-rendering:geometricPrecision; image-rendering:optimizeQuality; fill-rule:evenodd; clip-rule:evenodd" xmlns:xlink="http://www.w3.org/1999/xlink">
<g><path style="opacity:1" fill="#fefefd" d="M -0.5,-0.5 C 152.5,-0.5 305.5,-0.5 458.5,-0.5C 458.5,152.167 458.5,304.833 458.5,457.5C 305.5,457.5 152.5,457.5 -0.5,457.5C -0.5,304.833 -0.5,152.167 -0.5,-0.5 Z"/></g>
<g><path style="opacity:1" fill="#e42412" d="M 203.5,3.5 C 289.736,-2.06776 359.236,28.9322 412,96.5C 451.235,153.105 463.235,215.105 448,282.5C 424.716,365.118 372.216,419.618 290.5,446C 219.143,464.335 153.476,452.335 93.5,410C 27.6267,357.121 -2.20666,288.288 4,203.5C 16.485,120.316 60.3183,60.1497 135.5,23C 157.387,13.3655 180.054,6.86551 203.5,3.5 Z"/></g>
<g><path style="opacity:1" fill="#fdfaf9" d="M 203.5,8.5 C 295.948,2.47575 367.448,37.8091 418,114.5C 448.068,165.69 456.735,220.357 444,278.5C 422.662,360.838 371.495,415.005 290.5,441C 215.4,460.49 147.4,446.49 86.5,399C 41.3633,360.236 15.53,311.07 9,251.5C 3.63206,154.719 42.4654,81.8856 125.5,33C 150.256,20.4846 176.256,12.318 203.5,8.5 Z"/></g>
<g><path style="opacity:1" fill="#059f58" d="M 206.5,15.5 C 295.245,10.4549 363.745,44.7883 412,118.5C 440.569,168.274 448.903,221.274 437,277.5C 434.184,286.764 431.684,296.098 429.5,305.5C 406.824,305.833 384.157,305.5 361.5,304.5C 389.394,250.593 387.894,197.593 357,145.5C 325.654,100.158 282.321,77.1577 227,76.5C 161.356,79.65 114.689,110.983 87,170.5C 72.6895,209.991 73.0228,249.324 88,288.5C 90.7057,294.078 93.539,299.578 96.5,305C 73.8358,305.5 51.1691,305.667 28.5,305.5C 1.40467,226.397 13.9047,154.397 66,89.5C 103.758,47.5381 150.592,22.8715 206.5,15.5 Z"/></g>
<g><path style="opacity:1" fill="#e5180a" d="M 212.5,84.5 C 271.225,80.9518 317.391,102.952 351,150.5C 373.633,188.02 379.3,228.02 368,270.5C 363.655,282.191 358.489,293.524 352.5,304.5C 349.5,305.833 346.5,305.833 343.5,304.5C 372.567,257.077 374.067,208.744 348,159.5C 316.449,110.177 271.283,87.6768 212.5,92C 153.662,101.845 114.828,135.011 96,191.5C 85.9816,232.048 92.1483,269.881 114.5,305C 111.24,305.784 108.073,305.617 105,304.5C 81.4861,262.082 78.1527,218.082 95,172.5C 118.546,122.159 157.713,92.8259 212.5,84.5 Z"/></g>
<g><path style="opacity:1" fill="#e51508" d="M 242.5,105.5 C 246.573,112.859 248.573,120.859 248.5,129.5C 249.85,128.05 251.516,127.383 253.5,127.5C 253.076,130.354 252.076,133.021 250.5,135.5C 250.833,135.833 251.167,136.167 251.5,136.5C 255.554,133.806 259.888,131.639 264.5,130C 266.96,128.542 269.127,126.709 271,124.5C 271.733,128.971 271.233,133.305 269.5,137.5C 269.833,137.833 270.167,138.167 270.5,138.5C 275.006,136.616 279.673,136.116 284.5,137C 271.647,148.166 273.314,150.5 289.5,144C 292.167,143.333 294.833,143.333 297.5,144C 296.833,144.667 296.167,145.333 295.5,146C 300.167,146.333 304.833,146.667 309.5,147C 307.393,148.264 306.393,150.097 306.5,152.5C 312.441,152.699 312.941,154.366 308,157.5C 305.644,164.339 304.31,171.339 304,178.5C 320.22,183.598 329.386,194.598 331.5,211.5C 331.167,212.5 330.833,213.5 330.5,214.5C 327.885,212.721 325.218,212.055 322.5,212.5C 331.061,224.125 334.227,237.125 332,251.5C 329.322,241.488 324.155,232.988 316.5,226C 307.818,219.655 298.485,214.322 288.5,210C 284.612,207.778 281.779,204.612 280,200.5C 277.738,213.229 282.238,222.729 293.5,229C 303.303,232.981 311.803,238.814 319,246.5C 323.871,255.301 324.871,264.635 322,274.5C 317.927,283.648 312.593,291.982 306,299.5C 308.652,293.095 310.985,286.428 313,279.5C 315.406,264.714 311.073,252.381 300,242.5C 290.969,236.313 282.969,228.98 276,220.5C 273.743,213.668 271.576,206.835 269.5,200C 271.313,200.046 272.979,199.88 274.5,199.5C 272.016,193.196 268.516,187.53 264,182.5C 261.94,177.752 262.107,173.086 264.5,168.5C 268.497,175.334 274.164,180.167 281.5,183C 290.092,185.1 295.926,181.933 299,173.5C 301.485,162.645 297.318,155.812 286.5,153C 279.493,151.438 273.159,152.771 267.5,157C 262.161,161.167 258.161,166.334 255.5,172.5C 247.251,174.708 239.751,178.375 233,183.5C 228.313,180.073 223.146,177.573 217.5,176C 210.816,166.984 203.149,158.984 194.5,152C 188.152,148.55 181.485,145.884 174.5,144C 179.437,142.915 184.437,142.248 189.5,142C 188.016,140.426 186.349,139.093 184.5,138C 192.189,137.256 198.689,139.756 204,145.5C 204.667,144.833 204.667,144.167 204,143.5C 201.667,141.5 199.333,139.5 197,137.5C 195.932,134.129 194.765,130.796 193.5,127.5C 201.021,127.162 207.521,129.829 213,135.5C 214.838,127.987 219.004,122.153 225.5,118C 229.5,116 233.5,114 237.5,112C 239.765,110.242 241.432,108.075 242.5,105.5 Z"/></g>
<g><path style="opacity:1" fill="#fdf2f0" d="M 231.5,120.5 C 232.043,120.56 232.376,120.893 232.5,121.5C 222.754,133.063 220.254,146.063 225,160.5C 226.902,165.213 228.568,169.88 230,174.5C 217.044,161.951 213.711,147.285 220,130.5C 223.433,126.558 227.266,123.224 231.5,120.5 Z"/></g>
<g><path style="opacity:1" fill="#fdf2f0" d="M 236.5,130.5 C 237.043,130.56 237.376,130.893 237.5,131.5C 235.143,138.626 233.976,145.959 234,153.5C 228.681,145.063 229.514,137.396 236.5,130.5 Z"/></g>
<g><path style="opacity:1" fill="#fce8e5" d="M 259.5,139.5 C 261.225,139.843 261.725,140.843 261,142.5C 257.185,146.072 253.185,149.405 249,152.5C 247.66,155.202 246.327,157.869 245,160.5C 244.545,156.186 245.545,152.186 248,148.5C 251.812,145.36 255.645,142.36 259.5,139.5 Z"/></g>
<g><path style="opacity:1" fill="#e51a0b" d="M 170.5,148.5 C 176.638,147.732 182.305,148.899 187.5,152C 174.034,151.137 167.534,157.304 168,170.5C 169.39,174.947 171.556,178.947 174.5,182.5C 173.833,182.833 173.167,183.167 172.5,183.5C 166.53,182.752 160.53,182.252 154.5,182C 156.221,180.473 158.221,179.473 160.5,179C 161.022,178.439 161.355,177.772 161.5,177C 155.623,164.471 158.623,154.971 170.5,148.5 Z"/></g>
<g><path style="opacity:1" fill="#e51a0b" d="M 188.5,160.5 C 189.946,159.387 191.613,159.22 193.5,160C 198.416,161.848 199.583,165.014 197,169.5C 194.21,173.126 190.71,175.792 186.5,177.5C 185.752,174.503 185.085,171.503 184.5,168.5C 181.218,166.127 177.552,164.627 173.5,164C 174.328,163.085 175.328,162.419 176.5,162C 181.265,161.863 185.265,161.363 188.5,160.5 Z"/></g>
<g><path style="opacity:1" fill="#e41609" d="M 273.5,159.5 C 278.293,161.034 283.96,161.867 290.5,162C 291.672,162.419 292.672,163.085 293.5,164C 284.899,164.434 280.566,168.934 280.5,177.5C 273.753,174.947 269.92,170.28 269,163.5C 270.397,161.93 271.897,160.596 273.5,159.5 Z"/></g>
<g><path style="opacity:1" fill="#e51206" d="M 199.5,174.5 C 198.321,185.883 191.988,193.383 180.5,197C 170.708,198.465 161.041,200.465 151.5,203C 145.087,207.068 138.421,210.735 131.5,214C 130.5,214.667 129.5,214.667 128.5,214C 134.779,207.721 141.113,201.387 147.5,195C 143.588,196.194 140.088,198.361 137,201.5C 139.043,194.123 143.877,189.29 151.5,187C 158.845,186.417 166.178,186.584 173.5,187.5C 184.058,186.888 192.724,182.554 199.5,174.5 Z"/></g>
<g><path style="opacity:1" fill="#fdf4f2" d="M 277.5,185.5 C 280.261,187.212 283.261,188.378 286.5,189C 296.588,188.49 306.254,190.157 315.5,194C 318.206,196.371 320.539,199.037 322.5,202C 310.988,199.569 299.321,197.569 287.5,196C 282.59,193.925 279.257,190.425 277.5,185.5 Z"/></g>
<g><path style="opacity:1" fill="#009f57" d="M 198.5,192.5 C 203.967,192.904 209.3,193.904 214.5,195.5C 217.827,199.472 218.327,203.806 216,208.5C 213.209,203.849 209.042,201.349 203.5,201C 200.404,198.971 198.738,196.138 198.5,192.5 Z"/></g>
<g><path style="opacity:1" fill="#009f57" d="M 266.5,192.5 C 266.917,195.226 265.917,197.726 263.5,200C 259.419,201.471 255.419,203.138 251.5,205C 249.739,209.116 248.739,208.449 248.5,203C 248.565,200.474 249.232,198.141 250.5,196C 255.803,194.153 261.136,192.987 266.5,192.5 Z"/></g>
<g><path style="opacity:1" fill="#e51508" d="M 183.5,200.5 C 184.5,200.5 185.5,200.5 186.5,200.5C 185.564,203.959 183.564,206.793 180.5,209C 172.742,211.029 165.408,214.029 158.5,218C 154.578,221.251 151.412,225.084 149,229.5C 145.375,237.256 140.875,244.423 135.5,251C 132.446,253.208 129.113,254.208 125.5,254C 127.359,252.442 128.859,250.609 130,248.5C 132,241.167 134,233.833 136,226.5C 139.167,218 145,212.167 153.5,209C 161.804,206.873 170.137,204.873 178.5,203C 180.491,202.626 182.158,201.793 183.5,200.5 Z"/></g>
<g><path style="opacity:1" fill="#e4200f" d="M 192.5,203.5 C 193.166,207.684 193.833,212.018 194.5,216.5C 195.167,216.833 195.833,217.167 196.5,217.5C 196.868,221.956 198.368,225.956 201,229.5C 201.667,231.167 201.667,232.833 201,234.5C 197.667,229.167 194.333,223.833 191,218.5C 190.096,213.269 190.596,208.269 192.5,203.5 Z"/></g>
<g><path style="opacity:1" fill="#e51005" d="M 185.5,219.5 C 186.643,222.976 186.81,226.642 186,230.5C 184.349,233.802 182.682,237.136 181,240.5C 174.626,247.206 168.626,254.206 163,261.5C 154.152,276.212 154.652,290.712 164.5,305C 162.255,304.805 160.422,303.638 159,301.5C 152.192,293.084 148.526,283.417 148,272.5C 143.338,277.02 137.838,278.52 131.5,277C 134.219,275.403 136.386,273.237 138,270.5C 140.569,264.695 142.569,258.695 144,252.5C 146.63,245.865 150.797,240.365 156.5,236C 164.045,232.061 171.712,228.394 179.5,225C 181.996,223.669 183.996,221.836 185.5,219.5 Z"/></g>
<g><path style="opacity:1" fill="#e51106" d="M 250.5,220.5 C 251.74,223.024 252.907,225.691 254,228.5C 256.795,230.293 259.295,232.46 261.5,235C 262.744,235.456 263.577,234.956 264,233.5C 264.495,231.527 264.662,229.527 264.5,227.5C 265.822,227.67 266.989,227.337 268,226.5C 268.216,224.616 268.883,222.949 270,221.5C 270.855,228.946 273.521,235.613 278,241.5C 283.698,247.532 289.698,253.199 296,258.5C 304.861,269.383 305.861,281.05 299,293.5C 295.869,297.633 292.369,301.466 288.5,305C 286.421,305.808 284.421,305.641 282.5,304.5C 288.416,293.023 288.916,281.357 284,269.5C 278.755,262.676 273.755,255.676 269,248.5C 270.532,257.624 272.865,266.624 276,275.5C 276.777,285.571 276.277,295.571 274.5,305.5C 269.833,305.5 265.167,305.5 260.5,305.5C 260.665,302.482 260.498,299.482 260,296.5C 259.468,299.264 258.634,301.93 257.5,304.5C 245.518,305.499 233.518,305.832 221.5,305.5C 220.351,288.317 219.351,288.317 218.5,305.5C 214.5,305.5 210.5,305.5 206.5,305.5C 202.328,292.79 204.162,281.123 212,270.5C 212.923,271.759 213.757,273.092 214.5,274.5C 215.914,273.376 217.414,272.376 219,271.5C 219.253,274.79 220.253,277.79 222,280.5C 222.26,278.382 223.26,276.716 225,275.5C 226.954,279.282 229.454,282.615 232.5,285.5C 236.12,282.926 238.787,279.592 240.5,275.5C 241.852,276.518 242.852,277.851 243.5,279.5C 245.196,277.454 246.529,275.121 247.5,272.5C 249.392,275.044 251.225,275.044 253,272.5C 253.318,265.46 249.818,261.293 242.5,260C 218.995,256.338 204.829,266.172 200,289.5C 199.685,294.838 199.852,300.172 200.5,305.5C 199.5,305.5 198.5,305.5 197.5,305.5C 192.672,291.286 192.172,276.952 196,262.5C 193.252,267.477 191.419,272.81 190.5,278.5C 189.34,274.541 189.173,270.541 190,266.5C 193.751,255.664 198.584,245.331 204.5,235.5C 207.081,238.248 210.081,240.414 213.5,242C 211.217,242.291 209.05,241.791 207,240.5C 205.392,240.974 205.226,241.641 206.5,242.5C 211.308,244.046 215.974,245.879 220.5,248C 215.912,248.604 211.578,247.771 207.5,245.5C 206.269,246.651 206.269,247.817 207.5,249C 217.039,250.568 217.372,251.401 208.5,251.5C 208.33,252.822 208.663,253.989 209.5,255C 211.167,255.333 212.833,255.667 214.5,256C 213.552,256.483 212.552,256.649 211.5,256.5C 211.408,260.071 213.074,261.238 216.5,260C 220.027,259.049 223.36,257.716 226.5,256C 228.594,254.745 229.594,252.912 229.5,250.5C 228.006,246.844 226.506,243.177 225,239.5C 223.309,236.869 222.142,237.203 221.5,240.5C 216.754,238.338 214.587,234.672 215,229.5C 215.641,231.813 216.974,233.48 219,234.5C 228.847,235.788 238.68,235.788 248.5,234.5C 250.213,230.076 250.88,225.409 250.5,220.5 Z"/></g>
<g><path style="opacity:1" fill="#fef8f7" d="M 252.5,231.5 C 260.711,236.118 260.044,239.618 250.5,242C 253.588,242.847 256.421,242.347 259,240.5C 259.448,242.409 258.615,243.576 256.5,244C 252.757,245.136 249.09,246.47 245.5,248C 250.047,248.391 254.38,247.558 258.5,245.5C 259.571,247.325 258.904,248.492 256.5,249C 253.064,249.692 249.73,250.692 246.5,252C 250.253,252.091 253.92,252.258 257.5,252.5C 257.291,253.086 256.957,253.586 256.5,254C 254.1,254.186 251.766,254.686 249.5,255.5C 250.991,256.244 252.491,256.91 254,257.5C 254.612,259.237 253.946,260.237 252,260.5C 247.142,259.822 242.642,258.156 238.5,255.5C 237.063,253.979 236.396,252.145 236.5,250C 238.253,246.316 239.919,242.482 241.5,238.5C 241.833,238.167 242.167,237.833 242.5,237.5C 243.251,238.376 243.751,239.376 244,240.5C 248.192,238.781 251.026,235.781 252.5,231.5 Z"/></g>
<g><path style="opacity:1" fill="#e41709" d="M 190.5,239.5 C 191.559,241.726 191.392,244.059 190,246.5C 187,253.167 184,259.833 181,266.5C 178.032,277.492 179.532,287.825 185.5,297.5C 185.333,297.833 185.167,298.167 185,298.5C 178.755,292.012 174.588,284.346 172.5,275.5C 171.341,279.122 171.175,282.789 172,286.5C 174.868,292.896 177.702,299.23 180.5,305.5C 178.712,305.785 177.045,305.452 175.5,304.5C 171.243,298.992 167.743,292.992 165,286.5C 162.257,277.758 163.59,269.758 169,262.5C 175.527,255.061 182.527,248.061 190,241.5C 190.464,240.906 190.631,240.239 190.5,239.5 Z"/></g>
<g><path style="opacity:1" fill="#e41407" d="M 30.5,310.5 C 162.5,310.333 294.5,310.5 426.5,311C 427.022,311.561 427.355,312.228 427.5,313C 410.737,353.436 384.07,385.769 347.5,410C 268.5,410.667 189.5,410.667 110.5,410C 74.5997,385.77 47.7664,353.937 30,314.5C 29.4209,313.072 29.5876,311.738 30.5,310.5 Z"/></g>
<g><path style="opacity:1" fill="#fefefe" d="M 36.5,315.5 C 164.834,315.333 293.167,315.5 421.5,316C 404.432,352.734 379.099,382.4 345.5,405C 267.5,405.667 189.5,405.667 111.5,405C 77.9221,382.337 52.9221,352.504 36.5,315.5 Z"/></g>
<g><path style="opacity:1" fill="#e40000" d="M 79.5,351.5 C 87.1667,351.5 94.8333,351.5 102.5,351.5C 102.5,357.5 102.5,363.5 102.5,369.5C 94.8333,369.5 87.1667,369.5 79.5,369.5C 79.5,367.833 79.5,366.167 79.5,364.5C 85.5,364.5 91.5,364.5 97.5,364.5C 97.5,361.833 97.5,359.167 97.5,356.5C 91.5,356.5 85.5,356.5 79.5,356.5C 79.5,354.833 79.5,353.167 79.5,351.5 Z"/></g>
<g><path style="opacity:1" fill="#e40000" d="M 104.5,351.5 C 106.5,351.5 108.5,351.5 110.5,351.5C 110.5,357.5 110.5,363.5 110.5,369.5C 108.5,369.5 106.5,369.5 104.5,369.5C 104.5,363.5 104.5,357.5 104.5,351.5 Z"/></g>
<g><path style="opacity:1" fill="#e40000" d="M 112.5,351.5 C 119.5,351.5 126.5,351.5 133.5,351.5C 133.5,352.833 133.5,354.167 133.5,355.5C 128.167,355.5 122.833,355.5 117.5,355.5C 117.5,356.5 117.5,357.5 117.5,358.5C 122.833,358.5 128.167,358.5 133.5,358.5C 133.5,362.167 133.5,365.833 133.5,369.5C 126.5,369.5 119.5,369.5 112.5,369.5C 112.5,368.167 112.5,366.833 112.5,365.5C 117.833,365.5 123.167,365.5 128.5,365.5C 128.5,364.5 128.5,363.5 128.5,362.5C 123.167,362.5 117.833,362.5 112.5,362.5C 112.5,358.833 112.5,355.167 112.5,351.5 Z"/></g>
<g><path style="opacity:1" fill="#e40000" d="M 143.5,351.5 C 145.833,351.5 148.167,351.5 150.5,351.5C 151.947,356.388 154.447,360.721 158,364.5C 158.494,366.134 158.66,367.801 158.5,369.5C 156.833,369.5 155.167,369.5 153.5,369.5C 151.632,365.437 149.465,361.437 147,357.5C 144.535,361.437 142.368,365.437 140.5,369.5C 138.833,369.5 137.167,369.5 135.5,369.5C 135.34,367.801 135.506,366.134 136,364.5C 139.553,360.721 142.053,356.388 143.5,351.5 Z"/></g>
<g><path style="opacity:1" fill="#e40000" d="M 160.5,351.5 C 167.833,351.5 175.167,351.5 182.5,351.5C 182.5,352.833 182.5,354.167 182.5,355.5C 176.833,355.5 171.167,355.5 165.5,355.5C 165.5,356.5 165.5,357.5 165.5,358.5C 171.167,358.5 176.833,358.5 182.5,358.5C 182.5,362.167 182.5,365.833 182.5,369.5C 175.167,369.5 167.833,369.5 160.5,369.5C 160.5,368.167 160.5,366.833 160.5,365.5C 166.167,365.5 171.833,365.5 177.5,365.5C 177.5,364.5 177.5,363.5 177.5,362.5C 171.833,362.5 166.167,362.5 160.5,362.5C 160.5,358.833 160.5,355.167 160.5,351.5 Z"/></g>
<g><path style="opacity:1" fill="#e40000" d="M 184.5,351.5 C 191.167,351.5 197.833,351.5 204.5,351.5C 204.5,353.167 204.5,354.833 204.5,356.5C 201.833,356.5 199.167,356.5 196.5,356.5C 196.5,360.833 196.5,365.167 196.5,369.5C 194.833,369.5 193.167,369.5 191.5,369.5C 191.5,365.167 191.5,360.833 191.5,356.5C 189.167,356.5 186.833,356.5 184.5,356.5C 184.5,354.833 184.5,353.167 184.5,351.5 Z"/></g>
<g><path style="opacity:1" fill="#e40000" d="M 206.5,351.5 C 212.833,351.5 219.167,351.5 225.5,351.5C 225.5,353.167 225.5,354.833 225.5,356.5C 219.167,356.5 212.833,356.5 206.5,356.5C 206.5,354.833 206.5,353.167 206.5,351.5 Z"/></g>
<g><path style="opacity:1" fill="#e40000" d="M 228.5,351.5 C 235.5,351.5 242.5,351.5 249.5,351.5C 249.5,355.5 249.5,359.5 249.5,363.5C 246.813,363.336 244.146,363.503 241.5,364C 244.503,365.166 247.17,366.833 249.5,369C 247.167,369.667 244.833,369.667 242.5,369C 239.833,366.333 237.167,363.667 234.5,361C 237.817,360.502 241.15,360.335 244.5,360.5C 244.5,359.167 244.5,357.833 244.5,356.5C 239.167,356.5 233.833,356.5 228.5,356.5C 228.5,354.833 228.5,353.167 228.5,351.5 Z"/></g>
<g><path style="opacity:1" fill="#009f57" d="M 263.5,351.5 C 270.833,351.5 278.167,351.5 285.5,351.5C 285.5,352.833 285.5,354.167 285.5,355.5C 279.833,355.5 274.167,355.5 268.5,355.5C 268.5,356.5 268.5,357.5 268.5,358.5C 274.167,358.5 279.833,358.5 285.5,358.5C 285.5,362.167 285.5,365.833 285.5,369.5C 278.167,369.5 270.833,369.5 263.5,369.5C 263.5,368.167 263.5,366.833 263.5,365.5C 269.167,365.5 274.833,365.5 280.5,365.5C 280.5,364.5 280.5,363.5 280.5,362.5C 274.833,362.5 269.167,362.5 263.5,362.5C 263.5,358.833 263.5,355.167 263.5,351.5 Z"/></g>
<g><path style="opacity:1" fill="#009f57" d="M 287.5,351.5 C 294.833,351.5 302.167,351.5 309.5,351.5C 309.5,353.167 309.5,354.833 309.5,356.5C 303.833,356.5 298.167,356.5 292.5,356.5C 292.5,359.167 292.5,361.833 292.5,364.5C 298.167,364.5 303.833,364.5 309.5,364.5C 309.5,366.167 309.5,367.833 309.5,369.5C 302.167,369.5 294.833,369.5 287.5,369.5C 287.5,363.5 287.5,357.5 287.5,351.5 Z"/></g>
<g><path style="opacity:1" fill="#009f57" d="M 311.5,351.5 C 319.167,351.5 326.833,351.5 334.5,351.5C 334.5,357.5 334.5,363.5 334.5,369.5C 326.833,369.5 319.167,369.5 311.5,369.5C 311.5,363.5 311.5,357.5 311.5,351.5 Z"/></g>
<g><path style="opacity:1" fill="#009f57" d="M 336.5,351.5 C 338.167,351.5 339.833,351.5 341.5,351.5C 341.5,355.833 341.5,360.167 341.5,364.5C 345.5,364.5 349.5,364.5 353.5,364.5C 353.5,360.167 353.5,355.833 353.5,351.5C 355.167,351.5 356.833,351.5 358.5,351.5C 358.5,357.5 358.5,363.5 358.5,369.5C 351.167,369.5 343.833,369.5 336.5,369.5C 336.5,363.5 336.5,357.5 336.5,351.5 Z"/></g>
<g><path style="opacity:1" fill="#009f57" d="M 360.5,351.5 C 367.5,351.5 374.5,351.5 381.5,351.5C 381.5,353.167 381.5,354.833 381.5,356.5C 378.833,356.5 376.167,356.5 373.5,356.5C 373.5,360.833 373.5,365.167 373.5,369.5C 371.833,369.5 370.167,369.5 368.5,369.5C 368.5,365.167 368.5,360.833 368.5,356.5C 365.833,356.5 363.167,356.5 360.5,356.5C 360.5,354.833 360.5,353.167 360.5,351.5 Z"/></g>
<g><path style="opacity:1" fill="#fefffe" d="M 316.5,356.5 C 320.833,356.5 325.167,356.5 329.5,356.5C 329.5,359.167 329.5,361.833 329.5,364.5C 325.167,364.5 320.833,364.5 316.5,364.5C 316.5,361.833 316.5,359.167 316.5,356.5 Z"/></g>
<g><path style="opacity:1" fill="#e40000" d="M 206.5,358.5 C 212.833,358.5 219.167,358.5 225.5,358.5C 225.5,359.833 225.5,361.167 225.5,362.5C 219.167,362.5 212.833,362.5 206.5,362.5C 206.5,361.167 206.5,359.833 206.5,358.5 Z"/></g>
<g><path style="opacity:1" fill="#e40000" d="M 206.5,364.5 C 212.833,364.5 219.167,364.5 225.5,364.5C 225.5,366.167 225.5,367.833 225.5,369.5C 219.167,369.5 212.833,369.5 206.5,369.5C 206.5,367.833 206.5,366.167 206.5,364.5 Z"/></g>
<g><path style="opacity:1" fill="#099f59" d="M 124.5,414.5 C 194.167,414.333 263.834,414.5 333.5,415C 271.767,447.792 208.434,451.125 143.5,425C 136.421,422.469 130.087,418.969 124.5,414.5 Z"/></g>
</svg>
