<?xml version="1.0" encoding="UTF-8"?>
<!DOCTYPE svg PUBLIC "-//W3C//DTD SVG 1.1//EN" "http://www.w3.org/Graphics/SVG/1.1/DTD/svg11.dtd">
<svg xmlns="http://www.w3.org/2000/svg" version="1.1" width="797px" height="498px" style="shape-rendering:geometricPrecision; text-rendering:geometricPrecision; image-rendering:optimizeQuality; fill-rule:evenodd; clip-rule:evenodd" xmlns:xlink="http://www.w3.org/1999/xlink">
<g><path style="opacity:1" fill="#fefffe" d="M -0.5,-0.5 C 265.167,-0.5 530.833,-0.5 796.5,-0.5C 796.5,165.5 796.5,331.5 796.5,497.5C 530.833,497.5 265.167,497.5 -0.5,497.5C -0.5,331.5 -0.5,165.5 -0.5,-0.5 Z"/></g>
<g><path style="opacity:1" fill="#0000a0" d="M 365.5,136.5 C 399.853,136.51 434.186,137.344 468.5,139C 488.569,139.525 508.235,142.525 527.5,148C 560.468,160.656 593.801,172.323 627.5,183C 649.767,189.45 672.433,191.95 695.5,190.5C 695.802,198.556 695.469,206.556 694.5,214.5C 693.609,215.59 692.609,215.59 691.5,214.5C 690.177,209.559 689.177,204.559 688.5,199.5C 679.463,199.665 670.463,199.165 661.5,198C 629.672,191.411 597.505,188.578 565,189.5C 532.149,190.094 499.316,191.26 466.5,193C 402.655,193.795 338.822,193.295 275,191.5C 233.367,191.165 191.867,193.332 150.5,198C 136.704,199.59 123.037,201.923 109.5,205C 107.683,206.8 106.516,208.966 106,211.5C 105.501,215.486 105.334,219.486 105.5,223.5C 103.833,223.5 102.167,223.5 100.5,223.5C 99.9885,216.969 100.822,210.636 103,204.5C 104.543,202.622 106.376,201.122 108.5,200C 151.383,191.378 194.717,186.711 238.5,186C 290.01,185.324 341.51,185.824 393,187.5C 434.879,187.218 476.713,185.718 518.5,183C 522.152,179.847 521.819,176.847 517.5,174C 492.482,161.771 466.482,152.104 439.5,145C 413.844,143.694 388.177,143.36 362.5,144C 354.842,145.996 347.842,149.33 341.5,154C 329.333,164.167 317.167,174.333 305,184.5C 303.833,183.333 302.667,182.167 301.5,181C 313.871,169.627 326.538,158.627 339.5,148C 347.408,142.207 356.075,138.374 365.5,136.5 Z"/></g>
<g><path style="opacity:1" fill="#0000a0" d="M 361.5,146.5 C 362.376,146.369 363.043,146.702 363.5,147.5C 360.96,160.284 357.127,172.617 352,184.5C 353.003,171.319 356.169,158.652 361.5,146.5 Z"/></g>
<g><path style="opacity:1" fill="#0000a0" d="M 447.5,151.5 C 448.725,152.152 449.392,153.319 449.5,155C 448.256,162.551 446.756,170.051 445,177.5C 444.64,179.421 443.806,181.088 442.5,182.5C 442.469,171.974 444.136,161.64 447.5,151.5 Z"/></g>
<g><path style="opacity:1" fill="#0000a0" d="M 360.5,172.5 C 361.75,172.577 362.583,173.244 363,174.5C 363.543,177.868 363.376,181.201 362.5,184.5C 358.887,184.22 356.887,182.22 356.5,178.5C 356.866,175.744 358.2,173.744 360.5,172.5 Z"/></g>
<g><path style="opacity:1" fill="#0000a0" d="M 179.5,178.5 C 201.169,178.333 222.836,178.5 244.5,179C 251.292,179.062 257.959,179.896 264.5,181.5C 234.514,181.071 204.514,181.571 174.5,183C 169.245,183.793 164.578,185.96 160.5,189.5C 159.479,188.998 159.312,188.332 160,187.5C 165.13,181.3 171.63,178.3 179.5,178.5 Z"/></g>
<g><path style="opacity:1" fill="#0000a0" d="M 444.5,195.5 C 448.949,215.598 448.116,235.598 442,255.5C 441.596,235.398 442.429,215.398 444.5,195.5 Z"/></g>
<g><path style="opacity:1" fill="#0000a0" d="M 417.5,198.5 C 423.833,198.5 430.167,198.5 436.5,198.5C 436.923,201.243 435.756,202.576 433,202.5C 427.598,201.371 422.432,200.038 417.5,198.5 Z"/></g>
<g><path style="opacity:1" fill="#0000a0" d="M 116.5,215.5 C 121.179,215.334 125.845,215.501 130.5,216C 131.833,217.333 131.833,218.667 130.5,220C 125.833,220.667 121.167,220.667 116.5,220C 115.272,218.51 115.272,217.01 116.5,215.5 Z"/></g>
<g><path style="opacity:1" fill="#0000a0" d="M 203.5,215.5 C 211.84,215.334 220.173,215.5 228.5,216C 251.25,219.322 263.083,232.489 264,255.5C 264.639,258.112 265.806,260.446 267.5,262.5C 265.741,263.754 264.241,263.421 263,261.5C 260.079,255.819 258.079,249.819 257,243.5C 253.833,235 248,229.167 239.5,226C 227.714,222.719 215.714,221.719 203.5,223C 185.311,225.356 174.978,235.523 172.5,253.5C 170.103,240.184 174.436,229.684 185.5,222C 191.299,218.918 197.299,216.752 203.5,215.5 Z"/></g>
<g><path style="opacity:1" fill="#0000a0" d="M 541.5,216.5 C 554.429,215.432 566.763,217.599 578.5,223C 581.295,224.793 583.795,226.96 586,229.5C 591.418,238.001 596.585,246.668 601.5,255.5C 599.671,256.282 598.171,255.616 597,253.5C 590.558,244.059 583.058,235.559 574.5,228C 560.039,222.9 545.372,222.234 530.5,226C 514.959,231.571 507.126,242.738 507,259.5C 502.525,243.808 508.025,231.308 523.5,222C 529.435,219.523 535.435,217.69 541.5,216.5 Z"/></g>
<g><path style="opacity:1" fill="#0000a0" d="M 660.5,230.5 C 665.511,230.334 670.511,230.501 675.5,231C 677.527,232.396 677.86,234.062 676.5,236C 670.833,236.667 665.167,236.667 659.5,236C 658.243,233.924 658.576,232.09 660.5,230.5 Z"/></g>
<g><path style="opacity:1" fill="#0000a0" d="M 151.5,234.5 C 157.537,234.171 163.537,234.504 169.5,235.5C 168.543,237.918 167.209,240.084 165.5,242C 160.816,242.461 156.149,242.295 151.5,241.5C 151.5,239.167 151.5,236.833 151.5,234.5 Z"/></g>
<g><path style="opacity:1" fill="#0000a0" d="M 438.5,260.5 C 455.17,260.333 471.837,260.5 488.5,261C 491.167,263 491.167,265 488.5,267C 418.166,267.298 347.833,267.131 277.5,266.5C 277.5,265.5 277.5,264.5 277.5,263.5C 331.334,262.795 385.001,261.795 438.5,260.5 Z"/></g>
<g><path style="opacity:1" fill="#3b3c3b" d="M 34.5,289.5 C 44.7071,288.905 54.0404,291.405 62.5,297C 63.0219,297.561 63.3552,298.228 63.5,299C 62.09,301.818 60.4234,304.485 58.5,307C 54.091,307.805 50.091,306.805 46.5,304C 25.2447,301.946 17.0781,311.446 22,332.5C 27.2527,343.371 35.7527,347.037 47.5,343.5C 48.487,340.232 48.8204,336.898 48.5,333.5C 45.5525,333.777 42.7191,333.444 40,332.5C 39.2114,328.909 39.3781,325.409 40.5,322C 48.1594,321.5 55.8261,321.334 63.5,321.5C 63.819,331.416 63.4856,341.25 62.5,351C 45.1285,360.638 28.6285,359.471 13,347.5C 4.11944,335.63 2.11944,322.63 7,308.5C 12.7841,297.208 21.9507,290.875 34.5,289.5 Z"/></g>
<g><path style="opacity:1" fill="#3b3c3b" d="M 753.5,289.5 C 781.842,290.009 794.342,304.343 791,332.5C 787.116,346.535 777.949,354.702 763.5,357C 742.924,358.976 729.758,350.143 724,330.5C 721.357,307.668 731.19,294.001 753.5,289.5 Z"/></g>
<g><path style="opacity:1" fill="#3b3c3b" d="M 76.5,290.5 C 94.1667,290.5 111.833,290.5 129.5,290.5C 129.5,294.833 129.5,299.167 129.5,303.5C 123.5,303.5 117.5,303.5 111.5,303.5C 111.5,321.167 111.5,338.833 111.5,356.5C 106.167,356.5 100.833,356.5 95.5,356.5C 95.5,338.833 95.5,321.167 95.5,303.5C 89.1667,303.5 82.8333,303.5 76.5,303.5C 76.5,299.167 76.5,294.833 76.5,290.5 Z"/></g>
<g><path style="opacity:1" fill="#3b3c3b" d="M 171.5,290.5 C 182.838,290.333 194.172,290.5 205.5,291C 222.258,295.091 230.924,305.758 231.5,323C 230.968,340.394 222.301,351.394 205.5,356C 194.172,356.5 182.838,356.667 171.5,356.5C 171.5,334.5 171.5,312.5 171.5,290.5 Z"/></g>
<g><path style="opacity:1" fill="#3b3c3b" d="M 247.5,290.5 C 257.839,290.334 268.172,290.5 278.5,291C 292.412,293.932 297.912,302.432 295,316.5C 292.894,322.272 289.061,326.438 283.5,329C 285.286,329.785 286.786,330.951 288,332.5C 292.5,340.167 297,347.833 301.5,355.5C 295.863,356.663 290.196,356.83 284.5,356C 279.625,349.086 275.125,341.919 271,334.5C 268.865,332.722 266.365,332.055 263.5,332.5C 263.5,340.5 263.5,348.5 263.5,356.5C 258.167,356.5 252.833,356.5 247.5,356.5C 247.5,334.5 247.5,312.5 247.5,290.5 Z"/></g>
<g><path style="opacity:1" fill="#3b3c3b" d="M 318.5,290.5 C 323.833,290.5 329.167,290.5 334.5,290.5C 334.5,312.5 334.5,334.5 334.5,356.5C 329.167,356.5 323.833,356.5 318.5,356.5C 318.5,334.5 318.5,312.5 318.5,290.5 Z"/></g>
<g><path style="opacity:1" fill="#3b3c3b" d="M 349.5,291.5 C 354.65,290.349 359.984,290.183 365.5,291C 372.3,305.724 378.134,320.891 383,336.5C 388.52,322.277 393.853,307.944 399,293.5C 399.833,292.667 400.667,291.833 401.5,291C 406.533,290.171 411.533,290.338 416.5,291.5C 407.927,313.057 399.26,334.557 390.5,356C 385.467,356.829 380.467,356.662 375.5,355.5C 367.002,333.987 358.336,312.653 349.5,291.5 Z"/></g>
<g><path style="opacity:1" fill="#3b3c3b" d="M 430.5,290.5 C 444.833,290.5 459.167,290.5 473.5,290.5C 473.5,294.5 473.5,298.5 473.5,302.5C 464.5,302.5 455.5,302.5 446.5,302.5C 446.5,307.5 446.5,312.5 446.5,317.5C 453.5,317.5 460.5,317.5 467.5,317.5C 467.5,321.5 467.5,325.5 467.5,329.5C 460.5,329.5 453.5,329.5 446.5,329.5C 446.5,334.5 446.5,339.5 446.5,344.5C 455.5,344.5 464.5,344.5 473.5,344.5C 473.5,348.5 473.5,352.5 473.5,356.5C 459.167,356.5 444.833,356.5 430.5,356.5C 430.5,334.5 430.5,312.5 430.5,290.5 Z"/></g>
<g><path style="opacity:1" fill="#3b3c3b" d="M 537.5,290.5 C 543.206,290.171 548.872,290.505 554.5,291.5C 562.833,312.833 571.167,334.167 579.5,355.5C 574.533,356.662 569.533,356.829 564.5,356C 561.643,352.273 559.643,348.107 558.5,343.5C 550.167,342.167 541.833,342.167 533.5,343.5C 532.349,348.142 530.349,352.309 527.5,356C 522.467,356.829 517.467,356.662 512.5,355.5C 521.124,333.923 529.457,312.256 537.5,290.5 Z"/></g>
<g><path style="opacity:1" fill="#3b3c3b" d="M 590.5,290.5 C 595.833,290.5 601.167,290.5 606.5,290.5C 606.333,304.837 606.5,319.171 607,333.5C 610.335,343.246 616.835,346.079 626.5,342C 628.43,339.742 629.93,337.242 631,334.5C 631.5,319.837 631.667,305.17 631.5,290.5C 636.833,290.5 642.167,290.5 647.5,290.5C 647.94,306.89 647.44,323.224 646,339.5C 641.153,351.668 632.153,357.334 619,356.5C 603.629,357.454 594.296,350.454 591,335.5C 590.5,320.504 590.333,305.504 590.5,290.5 Z"/></g>
<g><path style="opacity:1" fill="#3b3c3b" d="M 661.5,290.5 C 679.167,290.5 696.833,290.5 714.5,290.5C 714.5,294.833 714.5,299.167 714.5,303.5C 708.5,303.5 702.5,303.5 696.5,303.5C 696.5,321.167 696.5,338.833 696.5,356.5C 691.167,356.5 685.833,356.5 680.5,356.5C 680.5,338.833 680.5,321.167 680.5,303.5C 674.167,303.5 667.833,303.5 661.5,303.5C 661.5,299.167 661.5,294.833 661.5,290.5 Z"/></g>
<g><path style="opacity:1" fill="#fefffe" d="M 187.5,302.5 C 209.515,300.867 218.349,310.867 214,332.5C 212.314,337.394 209.147,340.894 204.5,343C 198.899,344.217 193.232,344.717 187.5,344.5C 187.5,330.5 187.5,316.5 187.5,302.5 Z"/></g>
<g><path style="opacity:1" fill="#fefffe" d="M 263.5,302.5 C 269.324,301.588 274.49,302.922 279,306.5C 281.312,311.899 280.145,316.399 275.5,320C 271.582,321.156 267.582,321.656 263.5,321.5C 263.5,315.167 263.5,308.833 263.5,302.5 Z"/></g>
<g><path style="opacity:1" fill="#fefffe" d="M 751.5,303.5 C 763.307,300.981 771.14,305.314 775,316.5C 776.31,323.871 775.31,330.871 772,337.5C 766.331,343.212 759.497,345.045 751.5,343C 743.174,339.026 739.174,332.359 739.5,323C 739.62,313.895 743.62,307.395 751.5,303.5 Z"/></g>
<g><path style="opacity:1" fill="#fefffe" d="M 545.5,305.5 C 548.574,313.546 551.574,321.713 554.5,330C 548.833,330.667 543.167,330.667 537.5,330C 540.667,321.998 543.334,313.831 545.5,305.5 Z"/></g>
</svg>
