<?xml version="1.0" encoding="UTF-8"?>
<!DOCTYPE svg PUBLIC "-//W3C//DTD SVG 1.1//EN" "http://www.w3.org/Graphics/SVG/1.1/DTD/svg11.dtd">
<svg xmlns="http://www.w3.org/2000/svg" version="1.1" width="797px" height="498px" style="shape-rendering:geometricPrecision; text-rendering:geometricPrecision; image-rendering:optimizeQuality; fill-rule:evenodd; clip-rule:evenodd" xmlns:xlink="http://www.w3.org/1999/xlink">
<g><path style="opacity:1" fill="#fefefe" d="M -0.5,-0.5 C 265.167,-0.5 530.833,-0.5 796.5,-0.5C 796.5,165.5 796.5,331.5 796.5,497.5C 530.833,497.5 265.167,497.5 -0.5,497.5C -0.5,331.5 -0.5,165.5 -0.5,-0.5 Z"/></g>
<g><path style="opacity:1" fill="#413589" d="M 361.5,137.5 C 409.626,136.299 457.626,138.132 505.5,143C 510.195,143.872 514.861,144.872 519.5,146C 556.74,160.191 594.406,173.191 632.5,185C 653.174,190.201 674.174,192.367 695.5,191.5C 695.597,199.191 695.263,206.858 694.5,214.5C 693.167,214.5 691.833,214.5 690.5,214.5C 690.387,209.482 690.053,204.482 689.5,199.5C 680.472,199.54 671.472,199.04 662.5,198C 629.522,191.382 596.189,188.215 562.5,188.5C 536.468,188.935 510.468,190.102 484.5,192C 457.003,192.67 429.503,193.17 402,193.5C 339.845,191.686 277.678,191.186 215.5,192C 180.52,193.368 145.853,197.368 111.5,204C 108.458,204.555 106.625,206.388 106,209.5C 104.775,214.085 104.275,218.752 104.5,223.5C 103.167,223.5 101.833,223.5 100.5,223.5C 99.0496,214.98 101.05,207.48 106.5,201C 132.829,194.875 159.496,190.875 186.5,189C 218.634,186.907 250.801,185.74 283,185.5C 333.814,187.306 384.647,187.806 435.5,187C 463.552,186.63 491.552,185.297 519.5,183C 521.396,181.192 521.896,179.025 521,176.5C 519.442,174.641 517.609,173.141 515.5,172C 487.41,158.636 458.076,149.303 427.5,144C 406.506,142.979 385.506,142.646 364.5,143C 355.278,145.111 346.944,149.111 339.5,155C 328.606,165.064 317.272,174.564 305.5,183.5C 304.354,182.855 303.354,182.022 302.5,181C 316.796,168.191 331.463,155.858 346.5,144C 351.367,141.226 356.367,139.059 361.5,137.5 Z"/></g>
<g><path style="opacity:1" fill="#493c8d" d="M 360.5,147.5 C 361.586,147.62 362.253,148.287 362.5,149.5C 360.439,161.336 356.939,172.669 352,183.5C 354,171.341 356.833,159.341 360.5,147.5 Z"/></g>
<g><path style="opacity:1" fill="#574a95" d="M 447.5,151.5 C 448.649,151.791 449.316,152.624 449.5,154C 447.981,163.778 445.648,173.278 442.5,182.5C 442.167,181.833 441.833,181.167 441.5,180.5C 443.247,170.766 445.247,161.1 447.5,151.5 Z"/></g>
<g><path style="opacity:1" fill="#504391" d="M 359.5,173.5 C 361.124,173.36 362.29,174.027 363,175.5C 363.495,178.531 363.329,181.531 362.5,184.5C 356.003,182.342 355.003,178.675 359.5,173.5 Z"/></g>
<g><path style="opacity:1" fill="#554894" d="M 260.5,180.5 C 259.791,181.404 258.791,181.737 257.5,181.5C 228.15,181.172 198.816,181.672 169.5,183C 166.073,184.796 162.906,186.963 160,189.5C 159.333,188.833 159.333,188.167 160,187.5C 166.153,181.335 173.653,178.501 182.5,179C 208.541,178.034 234.541,178.534 260.5,180.5 Z"/></g>
<g><path style="opacity:1" fill="#8c84b7" d="M 260.5,180.5 C 261.978,180.238 263.311,180.571 264.5,181.5C 262.027,182.797 259.693,182.797 257.5,181.5C 258.791,181.737 259.791,181.404 260.5,180.5 Z"/></g>
<g><path style="opacity:1" fill="#64589e" d="M 198.5,182.5 C 205.841,182.334 213.174,182.5 220.5,183C 201.768,184.491 183.101,186.158 164.5,188C 175.866,185.534 187.2,183.701 198.5,182.5 Z"/></g>
<g><path style="opacity:1" fill="#958ebd" d="M 445.5,200.5 C 444.833,201.167 444.167,201.833 443.5,202.5C 443.201,200.396 443.534,198.396 444.5,196.5C 445.429,197.689 445.762,199.022 445.5,200.5 Z"/></g>
<g><path style="opacity:1" fill="#6b60a2" d="M 417.5,198.5 C 423.833,198.5 430.167,198.5 436.5,198.5C 436.5,199.5 436.5,200.5 436.5,201.5C 429.742,201.463 423.409,200.463 417.5,198.5 Z"/></g>
<g><path style="opacity:1" fill="#463a8c" d="M 445.5,200.5 C 446.585,212.807 446.752,225.141 446,237.5C 445.048,243.26 443.715,248.926 442,254.5C 442.59,237.19 443.09,219.856 443.5,202.5C 444.167,201.833 444.833,201.167 445.5,200.5 Z"/></g>
<g><path style="opacity:1" fill="#43368a" d="M 205.5,215.5 C 215.599,215.182 225.599,216.016 235.5,218C 253.969,223.087 263.136,235.254 263,254.5C 263.639,257.112 264.806,259.446 266.5,261.5C 265.998,262.521 265.332,262.688 264.5,262C 263.789,260.745 262.956,259.579 262,258.5C 260.586,252.763 258.919,247.096 257,241.5C 253.77,233.937 248.27,228.771 240.5,226C 222.175,219.438 204.175,220.105 186.5,228C 177.944,234.276 173.444,242.776 173,253.5C 170.439,236.46 177.272,224.96 193.5,219C 197.709,218.119 201.709,216.953 205.5,215.5 Z"/></g>
<g><path style="opacity:1" fill="#3c3086" d="M 116.5,216.5 C 121.167,216.5 125.833,216.5 130.5,216.5C 130.5,217.5 130.5,218.5 130.5,219.5C 125.833,219.5 121.167,219.5 116.5,219.5C 116.5,218.5 116.5,217.5 116.5,216.5 Z"/></g>
<g><path style="opacity:1" fill="#45388b" d="M 537.5,217.5 C 545.84,217.334 554.173,217.5 562.5,218C 572.491,219.244 580.658,223.744 587,231.5C 592.433,239.042 596.766,247.042 600,255.5C 593.618,248.12 587.618,240.453 582,232.5C 576.37,227.793 569.87,224.96 562.5,224C 553.833,223.333 545.167,223.333 536.5,224C 516.903,228.265 506.736,240.432 506,260.5C 503.239,245.769 507.739,233.935 519.5,225C 525.27,221.605 531.27,219.105 537.5,217.5 Z"/></g>
<g><path style="opacity:1" fill="#3c3086" d="M 659.5,231.5 C 665.167,231.5 670.833,231.5 676.5,231.5C 676.5,232.833 676.5,234.167 676.5,235.5C 670.833,235.5 665.167,235.5 659.5,235.5C 659.5,234.167 659.5,232.833 659.5,231.5 Z"/></g>
<g><path style="opacity:1" fill="#43378a" d="M 151.5,234.5 C 157.167,234.5 162.833,234.5 168.5,234.5C 168.414,236.677 167.747,238.677 166.5,240.5C 161.544,241.494 156.544,241.827 151.5,241.5C 151.5,239.167 151.5,236.833 151.5,234.5 Z"/></g>
<g><path style="opacity:1" fill="#4d4090" d="M 454.5,260.5 C 465.838,260.333 477.172,260.5 488.5,261C 489.833,263 489.833,265 488.5,267C 418.023,267.554 347.69,266.888 277.5,265C 336.531,263.474 395.531,261.974 454.5,260.5 Z"/></g>
<g><path style="opacity:1" fill="#737373" d="M 30.5,290.5 C 42.9134,288.281 53.9134,291.115 63.5,299C 61.8767,301.08 60.3767,303.246 59,305.5C 57.8061,306.43 56.4728,307.097 55,307.5C 48.4327,303.088 41.266,301.588 33.5,303C 28.4748,304.689 24.6415,307.856 22,312.5C 19.5168,321.443 20.1835,330.11 24,338.5C 30.5693,345.497 38.4026,347.331 47.5,344C 49.3625,340.851 50.0291,337.351 49.5,333.5C 46.4212,333.74 43.4212,333.407 40.5,332.5C 39.513,329.232 39.1796,325.898 39.5,322.5C 47.1667,322.5 54.8333,322.5 62.5,322.5C 62.6665,331.839 62.4998,341.173 62,350.5C 51.9207,356.1 41.0874,357.933 29.5,356C 10.519,349.227 2.35237,335.727 5,315.5C 8.80205,302.196 17.302,293.863 30.5,290.5 Z"/></g>
<g><path style="opacity:1" fill="#959595" d="M 77.5,291.5 C 94.6586,290.503 111.992,290.17 129.5,290.5C 129.5,294.5 129.5,298.5 129.5,302.5C 129.167,302.5 128.833,302.5 128.5,302.5C 128.5,298.833 128.5,295.167 128.5,291.5C 111.5,291.5 94.5,291.5 77.5,291.5 Z"/></g>
<g><path style="opacity:1" fill="#989898" d="M 662.5,291.5 C 679.659,290.503 696.992,290.17 714.5,290.5C 714.817,294.702 714.483,298.702 713.5,302.5C 713.5,298.833 713.5,295.167 713.5,291.5C 696.5,291.5 679.5,291.5 662.5,291.5 Z"/></g>
<g><path style="opacity:1" fill="#737373" d="M 748.5,290.5 C 780.651,288.813 794.485,303.813 790,335.5C 781.522,352.822 767.688,359.655 748.5,356C 729.831,349.519 721.665,336.352 724,316.5C 727.449,303.186 735.616,294.519 748.5,290.5 Z"/></g>
<g><path style="opacity:1" fill="#727272" d="M 77.5,291.5 C 94.5,291.5 111.5,291.5 128.5,291.5C 128.5,295.167 128.5,298.833 128.5,302.5C 122.5,302.5 116.5,302.5 110.5,302.5C 110.5,320.5 110.5,338.5 110.5,356.5C 105.5,356.5 100.5,356.5 95.5,356.5C 95.5,338.5 95.5,320.5 95.5,302.5C 89.5,302.5 83.5,302.5 77.5,302.5C 77.5,298.833 77.5,295.167 77.5,291.5 Z"/></g>
<g><path style="opacity:1" fill="#949494" d="M 201.5,291.5 C 191.833,291.5 182.167,291.5 172.5,291.5C 172.5,312.833 172.5,334.167 172.5,355.5C 182.833,355.5 193.167,355.5 203.5,355.5C 193.013,356.494 182.346,356.828 171.5,356.5C 171.5,334.5 171.5,312.5 171.5,290.5C 181.681,290.173 191.681,290.506 201.5,291.5 Z"/></g>
<g><path style="opacity:1" fill="#737373" d="M 201.5,291.5 C 219.829,293.997 229.829,304.497 231.5,323C 230.539,341.123 221.205,351.957 203.5,355.5C 193.167,355.5 182.833,355.5 172.5,355.5C 172.5,334.167 172.5,312.833 172.5,291.5C 182.167,291.5 191.833,291.5 201.5,291.5 Z"/></g>
<g><path style="opacity:1" fill="#b1b1b1" d="M 275.5,291.5 C 266.5,291.5 257.5,291.5 248.5,291.5C 248.5,313.167 248.5,334.833 248.5,356.5C 247.503,334.673 247.169,312.673 247.5,290.5C 257.015,290.173 266.348,290.506 275.5,291.5 Z"/></g>
<g><path style="opacity:1" fill="#747474" d="M 275.5,291.5 C 289.692,292.184 296.192,299.518 295,313.5C 293.404,320.761 289.237,325.927 282.5,329C 284.286,329.785 285.786,330.951 287,332.5C 291.457,340.584 296.291,348.418 301.5,356C 296.167,356.667 290.833,356.667 285.5,356C 280.043,348.925 275.21,341.425 271,333.5C 268.619,332.565 266.119,332.232 263.5,332.5C 263.5,340.5 263.5,348.5 263.5,356.5C 258.5,356.5 253.5,356.5 248.5,356.5C 248.5,334.833 248.5,313.167 248.5,291.5C 257.5,291.5 266.5,291.5 275.5,291.5 Z"/></g>
<g><path style="opacity:1" fill="#737373" d="M 318.5,290.5 C 323.5,290.5 328.5,290.5 333.5,290.5C 333.5,312.5 333.5,334.5 333.5,356.5C 328.5,356.5 323.5,356.5 318.5,356.5C 318.5,334.5 318.5,312.5 318.5,290.5 Z"/></g>
<g><path style="opacity:1" fill="#747474" d="M 350.5,290.5 C 355.179,290.334 359.845,290.501 364.5,291C 365.333,291.833 366.167,292.667 367,293.5C 372.927,308.675 378.26,324.008 383,339.5C 387.943,325.196 392.943,310.862 398,296.5C 399,294.833 400,293.167 401,291.5C 406.114,290.196 411.281,290.196 416.5,291.5C 407.05,312.85 398.383,334.517 390.5,356.5C 385.5,356.5 380.5,356.5 375.5,356.5C 367.568,334.374 359.235,312.374 350.5,290.5 Z"/></g>
<g><path style="opacity:1" fill="#747474" d="M 431.5,290.5 C 445.5,290.5 459.5,290.5 473.5,290.5C 473.5,294.5 473.5,298.5 473.5,302.5C 464.5,302.5 455.5,302.5 446.5,302.5C 446.5,307.5 446.5,312.5 446.5,317.5C 453.5,317.5 460.5,317.5 467.5,317.5C 467.5,321.167 467.5,324.833 467.5,328.5C 460.5,328.5 453.5,328.5 446.5,328.5C 446.5,333.833 446.5,339.167 446.5,344.5C 455.5,344.5 464.5,344.5 473.5,344.5C 473.5,348.5 473.5,352.5 473.5,356.5C 459.5,356.5 445.5,356.5 431.5,356.5C 431.5,334.5 431.5,312.5 431.5,290.5 Z"/></g>
<g><path style="opacity:1" fill="#747474" d="M 538.5,290.5 C 543.833,290.5 549.167,290.5 554.5,290.5C 562.337,312.51 570.67,334.343 579.5,356C 574.833,356.667 570.167,356.667 565.5,356C 564.667,355.167 563.833,354.333 563,353.5C 561.495,349.65 559.995,345.817 558.5,342C 550.167,341.333 541.833,341.333 533.5,342C 532.142,345.073 530.975,348.24 530,351.5C 529.426,353.492 528.259,354.992 526.5,356C 521.833,356.667 517.167,356.667 512.5,356C 521.312,334.212 529.978,312.379 538.5,290.5 Z"/></g>
<g><path style="opacity:1" fill="#727272" d="M 606.5,333.5 C 609.197,343.516 615.53,346.682 625.5,343C 628.98,340.703 630.98,337.536 631.5,333.5C 632.496,319.677 632.829,305.677 632.5,291.5C 637.167,291.5 641.833,291.5 646.5,291.5C 646.5,306.167 646.5,320.833 646.5,335.5C 642.917,350.075 633.583,357.075 618.5,356.5C 602.273,356.562 593.273,348.562 591.5,332.5C 591.5,318.833 591.5,305.167 591.5,291.5C 596.167,291.5 600.833,291.5 605.5,291.5C 605.171,305.677 605.504,319.677 606.5,333.5 Z"/></g>
<g><path style="opacity:1" fill="#afafaf" d="M 606.5,333.5 C 605.504,319.677 605.171,305.677 605.5,291.5C 600.833,291.5 596.167,291.5 591.5,291.5C 591.5,305.167 591.5,318.833 591.5,332.5C 590.504,318.677 590.171,304.677 590.5,290.5C 595.833,290.5 601.167,290.5 606.5,290.5C 606.5,304.833 606.5,319.167 606.5,333.5 Z"/></g>
<g><path style="opacity:1" fill="#a1a1a1" d="M 646.5,335.5 C 646.5,320.833 646.5,306.167 646.5,291.5C 641.833,291.5 637.167,291.5 632.5,291.5C 632.829,305.677 632.496,319.677 631.5,333.5C 631.5,319.167 631.5,304.833 631.5,290.5C 636.833,290.5 642.167,290.5 647.5,290.5C 647.829,305.676 647.496,320.676 646.5,335.5 Z"/></g>
<g><path style="opacity:1" fill="#727272" d="M 662.5,291.5 C 679.5,291.5 696.5,291.5 713.5,291.5C 713.5,295.167 713.5,298.833 713.5,302.5C 707.5,302.5 701.5,302.5 695.5,302.5C 695.5,320.5 695.5,338.5 695.5,356.5C 690.5,356.5 685.5,356.5 680.5,356.5C 680.5,338.5 680.5,320.5 680.5,302.5C 674.5,302.5 668.5,302.5 662.5,302.5C 662.5,298.833 662.5,295.167 662.5,291.5 Z"/></g>
<g><path style="opacity:1" fill="#fdfdfd" d="M 187.5,302.5 C 212.342,301.204 220.842,312.537 213,336.5C 206.196,344.032 197.696,346.698 187.5,344.5C 187.5,330.5 187.5,316.5 187.5,302.5 Z"/></g>
<g><path style="opacity:1" fill="#fdfdfd" d="M 263.5,302.5 C 268.777,301.931 273.777,302.765 278.5,305C 282.63,312.769 280.63,318.102 272.5,321C 269.518,321.498 266.518,321.665 263.5,321.5C 263.5,315.167 263.5,308.833 263.5,302.5 Z"/></g>
<g><path style="opacity:1" fill="#cdcdcd" d="M 128.5,302.5 C 128.833,302.5 129.167,302.5 129.5,302.5C 123.69,303.49 117.69,303.823 111.5,303.5C 111.83,321.341 111.497,339.008 110.5,356.5C 110.5,338.5 110.5,320.5 110.5,302.5C 116.5,302.5 122.5,302.5 128.5,302.5 Z"/></g>
<g><path style="opacity:1" fill="#fcfcfc" d="M 752.5,302.5 C 763.182,300.92 770.682,304.92 775,314.5C 778.292,324.51 776.459,333.343 769.5,341C 751.16,348.831 741.16,342.831 739.5,323C 739.192,313.096 743.525,306.263 752.5,302.5 Z"/></g>
<g><path style="opacity:1" fill="#f6f6f6" d="M 545.5,305.5 C 549.659,313.638 552.659,322.304 554.5,331.5C 548.833,331.5 543.167,331.5 537.5,331.5C 539.964,322.774 542.631,314.107 545.5,305.5 Z"/></g>
</svg>
