<?xml version="1.0" encoding="UTF-8"?>
<!DOCTYPE svg PUBLIC "-//W3C//DTD SVG 1.1//EN" "http://www.w3.org/Graphics/SVG/1.1/DTD/svg11.dtd">
<svg xmlns="http://www.w3.org/2000/svg" version="1.1" width="200px" height="200px" style="shape-rendering:geometricPrecision; text-rendering:geometricPrecision; image-rendering:optimizeQuality; fill-rule:evenodd; clip-rule:evenodd" xmlns:xlink="http://www.w3.org/1999/xlink">
<g><path style="opacity:1" fill="#009f57" d="M -0.5,-0.5 C 66.1667,-0.5 132.833,-0.5 199.5,-0.5C 199.5,66.1667 199.5,132.833 199.5,199.5C 132.833,199.5 66.1667,199.5 -0.5,199.5C -0.5,132.833 -0.5,66.1667 -0.5,-0.5 Z"/></g>
<g><path style="opacity:1" fill="#fefefe" d="M 88.5,15.5 C 103.603,13.3106 117.603,16.1439 130.5,24C 135.974,29.108 139.807,35.2746 142,42.5C 144.519,52.0177 146.185,61.6844 147,71.5C 148.385,72.5505 149.385,73.8839 150,75.5C 154.547,89.4058 149.713,97.0725 135.5,98.5C 132.792,104.757 129.459,110.59 125.5,116C 126.444,117.477 127.777,118.477 129.5,119C 146.07,125.354 162.404,132.187 178.5,139.5C 183.351,152.08 186.684,165.08 188.5,178.5C 188.449,180.1 188.116,181.6 187.5,183C 128.596,183.831 69.7629,183.664 11,182.5C 11.8187,168.076 14.8187,154.076 20,140.5C 37.666,132.219 55.4994,124.219 73.5,116.5C 66.6788,113.838 61.1788,109.505 57,103.5C 56.0266,101.608 55.3599,99.6079 55,97.5C 53.3333,96.5 51.6667,95.5 50,94.5C 48.4137,87.9427 48.0804,81.276 49,74.5C 49.6152,72.8839 50.6152,71.5505 52,70.5C 52.1535,61.4497 52.8201,52.4497 54,43.5C 56.4635,31.7011 63.2968,23.5345 74.5,19C 79.2954,17.8011 83.9621,16.6345 88.5,15.5 Z"/></g>
<g><path style="opacity:1" fill="#009f57" d="M 88.5,22.5 C 96.8933,22.1696 105.227,22.6696 113.5,24C 122.785,26.5467 129.619,32.0467 134,40.5C 138.69,49.2607 140.523,58.594 139.5,68.5C 138.5,68.5 137.5,68.5 136.5,68.5C 137.598,52.5218 131.265,40.6885 117.5,33C 106.847,31.0256 96.1801,31.0256 85.5,33C 66.9841,38.1879 58.8174,50.3545 61,69.5C 58.2825,57.7857 59.6158,46.4523 65,35.5C 71.1253,28.0701 78.9586,23.7368 88.5,22.5 Z"/></g>
<g><path style="opacity:1" fill="#009f57" d="M 121.5,56.5 C 130.787,68.3432 133.287,81.6766 129,96.5C 124.341,106.156 117.841,114.323 109.5,121C 99.7942,126.514 91.1275,125.18 83.5,117C 87.6095,115.857 91.2762,116.523 94.5,119C 103.677,121.492 107.511,117.992 106,108.5C 100.512,102.865 95.6783,103.365 91.5,110C 83.7586,112.41 77.9252,110.243 74,103.5C 70.1277,98.1086 68.6277,92.1086 69.5,85.5C 69.6667,82.1667 69.8333,78.8333 70,75.5C 72.7795,70.4993 74.7795,65.166 76,59.5C 89.5833,68.1178 103.417,68.6178 117.5,61C 119.041,59.6288 120.375,58.1288 121.5,56.5 Z"/></g>
<g><path style="opacity:1" fill="#fefffe" d="M 85.5,75.5 C 93.8185,75.9869 95.4851,79.4869 90.5,86C 82.0878,85.8117 80.4211,82.3117 85.5,75.5 Z"/></g>
<g><path style="opacity:1" fill="#fefffe" d="M 109.5,75.5 C 117.818,75.9869 119.485,79.4869 114.5,86C 106.088,85.8117 104.421,82.3117 109.5,75.5 Z"/></g>
<g><path style="opacity:1" fill="#009f57" d="M 60.5,94.5 C 61.4734,94.9867 62.4734,95.4867 63.5,96C 65.6229,100.287 68.6229,103.787 72.5,106.5C 73.5896,107.609 73.5896,108.609 72.5,109.5C 69.2444,107.289 66.0777,104.955 63,102.5C 61.6591,99.978 60.8257,97.3113 60.5,94.5 Z"/></g>
<g><path style="opacity:1" fill="#009f57" d="M 80.5,121.5 C 83.6344,123.905 86.9677,126.072 90.5,128C 89.3759,128.839 88.7092,130.006 88.5,131.5C 89.0327,135.298 90.0327,138.965 91.5,142.5C 96.8333,143.833 102.167,143.833 107.5,142.5C 108.733,138.734 109.733,134.901 110.5,131C 110.245,129.674 109.578,128.674 108.5,128C 111.927,126.204 115.094,124.037 118,121.5C 120.878,122.689 123.712,124.022 126.5,125.5C 127.353,142.754 123.186,158.754 114,173.5C 111.872,164.529 109.872,155.529 108,146.5C 102.333,145.167 96.6667,145.167 91,146.5C 88.8724,155.471 86.8724,164.471 85,173.5C 76.1266,158.671 71.9599,142.671 72.5,125.5C 75.2585,124.121 77.9252,122.787 80.5,121.5 Z"/></g>
</svg>
