<?xml version="1.0" encoding="UTF-8"?>
<!DOCTYPE svg PUBLIC "-//W3C//DTD SVG 1.1//EN" "http://www.w3.org/Graphics/SVG/1.1/DTD/svg11.dtd">
<svg xmlns="http://www.w3.org/2000/svg" version="1.1" width="331px" height="306px" style="shape-rendering:geometricPrecision; text-rendering:geometricPrecision; image-rendering:optimizeQuality; fill-rule:evenodd; clip-rule:evenodd" xmlns:xlink="http://www.w3.org/1999/xlink">
<g><path style="opacity:1" fill="#fefefe" d="M -0.5,-0.5 C 109.833,-0.5 220.167,-0.5 330.5,-0.5C 330.5,101.5 330.5,203.5 330.5,305.5C 220.167,305.5 109.833,305.5 -0.5,305.5C -0.5,203.5 -0.5,101.5 -0.5,-0.5 Z"/></g>
<g><path style="opacity:1" fill="#e40000" d="M 154.5,61.5 C 204.402,68.5718 237.569,95.9051 254,143.5C 256.093,149.76 254.093,153.76 248,155.5C 246.105,155.385 244.438,154.718 243,153.5C 229.494,108.165 199.327,81.8313 152.5,74.5C 148.247,69.4304 148.913,65.0971 154.5,61.5 Z"/></g>
<g><path style="opacity:1" fill="#e40000" d="M 155.5,90.5 C 189.998,94.4969 213.165,112.83 225,145.5C 227.003,153.827 223.836,157.327 215.5,156C 214.667,155.167 213.833,154.333 213,153.5C 204.026,124.529 184.526,107.696 154.5,103C 150.4,98.445 150.733,94.2783 155.5,90.5 Z"/></g>
<g><path style="opacity:1" fill="#009f57" d="M 98.5,91.5 C 103.179,91.3342 107.845,91.5008 112.5,92C 114.587,92.7922 116.421,93.9588 118,95.5C 121.68,107.039 124.847,118.705 127.5,130.5C 127.485,132.634 126.985,134.634 126,136.5C 122.667,139.833 119.333,143.167 116,146.5C 115.333,148.833 115.333,151.167 116,153.5C 126.458,168.958 139.291,182.125 154.5,193C 156.833,193.667 159.167,193.667 161.5,193C 165.695,187.114 171.195,183.28 178,181.5C 189.223,184.431 200.39,187.598 211.5,191C 215.515,194.371 217.182,198.704 216.5,204C 216.507,207.258 216.007,210.425 215,213.5C 211.581,218.923 207.415,223.756 202.5,228C 191.131,233.252 179.465,233.919 167.5,230C 152.251,225.543 138.585,218.21 126.5,208C 108.055,192.921 93.5547,174.754 83,153.5C 76.692,137.996 76.0253,122.329 81,106.5C 85.9865,100.437 91.8199,95.4365 98.5,91.5 Z"/></g>
<g><path style="opacity:1" fill="#e40000" d="M 154.5,116.5 C 177.485,118.653 192.152,130.819 198.5,153C 196.532,160.957 192.365,162.457 186,157.5C 181.831,141.664 171.665,132.497 155.5,130C 149.199,126.009 148.866,121.509 154.5,116.5 Z"/></g>
</svg>
